---BACKBONE CONFIGS---
==========================================
backbone_net:resnet
depth:101
dropout:0.5
groups:1
frames_per_group:1
without_t_stride:True
pooling_method:max
dw_t_conv:False
temporal_module_name:TAM
blending_frames:3
blending_method:sum
dw_conv:True
gpu:None
cudnn_benchmark:True
batch_size:32
lr:0.01
lr_scheduler:cosine
lr_steps:[15, 30, 45]
momentum:0.9
nesterov:False
weight_decay:0.0005
epochs:50
resume:
pretrained:./state_dicts/K400-TAM-ResNet-101-f32.pth.tar
start_epoch:0
clip_gradient:None
imagenet_pretrained:True
workers:0
datadir:/home/SarosijBose/HAR/KDHAR/kinetics400/k400
dataset:kinetics400
threed_data:False
input_size:224
disable_scaleup:False
random_sampling:False
dense_sampling:False
augmentor_ver:v1
scale_range:[256, 320]
modality:rgb
mean:None
std:None
logdir:snapshots/
print_freq:100
show_model:False
evaluate:False
num_crops:1
num_clips:1
sync_bn:False
world_size:1
rank:0
dist_url:tcp://127.0.0.1:23456
dist_backend:nccl
multiprocessing_distributed:False
num_classes:400

---FINE TUNE CONFIGS---
==========================================
base_path:/home/SarosijBose/HAR/KDHAR/soccer/images
stand_alone:False
epochs:100
runs:5
bs:32
loss:CrossEntropy
optim:Adam
lr:0.0001
workers:12
input_size:224
gpu:0
save_ckpt:True
eval_only:False
eval_ckpt:None
distill_ckpt:None
log_file:train_n_val6
device:cuda:0
log_dir:./log/train_n_val6/train_n_val6.log

Epoch:1 || loss------> 1.278
Epoch:1 || loss------> 1.156
Epoch:2 || loss------> 1.887
Epoch:2 || loss------> 1.147
Epoch:3 || loss------> 2.133
Epoch:3 || loss------> 1.155
Epoch:4 || loss------> 1.941
Epoch:4 || loss------> 1.084
Epoch:5 || loss------> 1.882
Epoch:5 || loss------> 1.060
Epoch:6 || loss------> 1.890
Epoch:6 || loss------> 1.091
Epoch:7 || loss------> 1.844
Epoch:7 || loss------> 1.086
Epoch:8 || loss------> 1.752
Epoch:8 || loss------> 1.009
Epoch:9 || loss------> 1.744
Epoch:9 || loss------> 0.975
Epoch:10 || loss------> 1.682
Epoch:10 || loss------> 0.954
Epoch:11 || loss------> 1.682
Epoch:11 || loss------> 0.943
Epoch:12 || loss------> 1.688
Epoch:12 || loss------> 0.940
Epoch:13 || loss------> 1.647
Epoch:13 || loss------> 0.912
Epoch:14 || loss------> 1.657
Epoch:14 || loss------> 0.956
Epoch:15 || loss------> 1.630
Epoch:15 || loss------> 0.950
Epoch:16 || loss------> 1.639
Epoch:16 || loss------> 0.898
Epoch:17 || loss------> 1.605
Epoch:17 || loss------> 0.898
Epoch:18 || loss------> 1.581
Epoch:18 || loss------> 0.864
Epoch:19 || loss------> 1.569
Epoch:19 || loss------> 0.882
Epoch:20 || loss------> 1.571
Epoch:20 || loss------> 0.857
Epoch:21 || loss------> 1.554
Epoch:21 || loss------> 0.852
Epoch:22 || loss------> 1.550
Epoch:22 || loss------> 0.852
Epoch:23 || loss------> 1.503
Epoch:23 || loss------> 0.876
Epoch:24 || loss------> 1.536
Epoch:24 || loss------> 0.860
Epoch:25 || loss------> 1.496
Epoch:25 || loss------> 0.838
Epoch:26 || loss------> 1.493
Epoch:26 || loss------> 0.857
Epoch:27 || loss------> 1.450
Epoch:27 || loss------> 0.838
Epoch:28 || loss------> 1.475
Epoch:28 || loss------> 0.819
Epoch:29 || loss------> 1.465
Epoch:29 || loss------> 0.817
Epoch:30 || loss------> 1.461
Epoch:30 || loss------> 0.819
Epoch:31 || loss------> 1.440
Epoch:31 || loss------> 0.858
Epoch:32 || loss------> 1.415
Epoch:32 || loss------> 0.834
Epoch:33 || loss------> 1.450
Epoch:33 || loss------> 0.838
Epoch:34 || loss------> 1.480
Epoch:34 || loss------> 0.805
Epoch:35 || loss------> 1.455
Epoch:35 || loss------> 0.800
Epoch:36 || loss------> 1.494
Epoch:36 || loss------> 0.816
Epoch:37 || loss------> 1.448
Epoch:37 || loss------> 0.843
Epoch:38 || loss------> 1.440
Epoch:38 || loss------> 0.844
Epoch:39 || loss------> 1.455
Epoch:39 || loss------> 0.800
Epoch:40 || loss------> 1.459
Epoch:40 || loss------> 0.841
Epoch:41 || loss------> 1.425
Epoch:41 || loss------> 0.834
Epoch:42 || loss------> 1.463
Epoch:42 || loss------> 0.823
Epoch:43 || loss------> 1.421
Epoch:43 || loss------> 0.820
Epoch:44 || loss------> 1.452
Epoch:44 || loss------> 0.810
Epoch:45 || loss------> 1.443
Epoch:45 || loss------> 0.779
Epoch:46 || loss------> 1.433
Epoch:46 || loss------> 0.825
Epoch:47 || loss------> 1.444
Epoch:47 || loss------> 0.784
Epoch:48 || loss------> 1.400
Epoch:48 || loss------> 0.795
Epoch:49 || loss------> 1.422
Epoch:49 || loss------> 0.788
Epoch:50 || loss------> 1.408
Epoch:50 || loss------> 0.783
Epoch:51 || loss------> 1.416
Epoch:51 || loss------> 0.785
Epoch:52 || loss------> 1.391
Epoch:52 || loss------> 0.795
Epoch:53 || loss------> 1.337
Epoch:53 || loss------> 0.757
Epoch:54 || loss------> 1.381
Epoch:54 || loss------> 0.770
Epoch:55 || loss------> 1.354
Epoch:55 || loss------> 0.787
Epoch:56 || loss------> 1.351
Epoch:56 || loss------> 0.777
Epoch:57 || loss------> 1.351
Epoch:57 || loss------> 0.752
Epoch:58 || loss------> 1.365
Epoch:58 || loss------> 0.759
Epoch:59 || loss------> 1.323
Epoch:59 || loss------> 0.746
Epoch:60 || loss------> 1.326
Epoch:60 || loss------> 0.775
Epoch:61 || loss------> 1.342
Epoch:61 || loss------> 0.758
Epoch:62 || loss------> 1.324
Epoch:62 || loss------> 0.771
Epoch:63 || loss------> 1.312
Epoch:63 || loss------> 0.747
Epoch:64 || loss------> 1.335
Epoch:64 || loss------> 0.727
Epoch:65 || loss------> 1.357
Epoch:65 || loss------> 0.742
Epoch:66 || loss------> 1.334
Epoch:66 || loss------> 0.734
Epoch:67 || loss------> 1.324
Epoch:67 || loss------> 0.742
Epoch:68 || loss------> 1.302
Epoch:68 || loss------> 0.779
Epoch:69 || loss------> 1.311
Epoch:69 || loss------> 0.732
Epoch:70 || loss------> 1.313
Epoch:70 || loss------> 0.734
Epoch:71 || loss------> 1.312
Epoch:71 || loss------> 0.743
Epoch:72 || loss------> 1.303
Epoch:72 || loss------> 0.749
Epoch:73 || loss------> 1.291
Epoch:73 || loss------> 0.748
Epoch:74 || loss------> 1.297
Epoch:74 || loss------> 0.720
Epoch:75 || loss------> 1.302
Epoch:75 || loss------> 0.711
Epoch:76 || loss------> 1.288
Epoch:76 || loss------> 0.714
Epoch:77 || loss------> 1.305
Epoch:77 || loss------> 0.732
Epoch:78 || loss------> 1.290
Epoch:78 || loss------> 0.721
Epoch:79 || loss------> 1.283
Epoch:79 || loss------> 0.734
Epoch:80 || loss------> 1.276
Epoch:80 || loss------> 0.734
Epoch:81 || loss------> 1.288
Epoch:81 || loss------> 0.720
Epoch:82 || loss------> 1.270
Epoch:82 || loss------> 0.730
Epoch:83 || loss------> 1.271
Epoch:83 || loss------> 0.741
Epoch:84 || loss------> 1.255
Epoch:84 || loss------> 0.728
Epoch:85 || loss------> 1.291
Epoch:85 || loss------> 0.732
Epoch:86 || loss------> 1.268
Epoch:86 || loss------> 0.727
Epoch:87 || loss------> 1.284
Epoch:87 || loss------> 0.716
Epoch:88 || loss------> 1.253
Epoch:88 || loss------> 0.722
Epoch:89 || loss------> 1.296
Epoch:89 || loss------> 0.718
Epoch:90 || loss------> 1.265
Epoch:90 || loss------> 0.739
Epoch:91 || loss------> 1.260
Epoch:91 || loss------> 0.696
Epoch:92 || loss------> 1.296
Epoch:92 || loss------> 0.712
Epoch:93 || loss------> 1.283
Epoch:93 || loss------> 0.714
Epoch:94 || loss------> 1.256
Epoch:94 || loss------> 0.714
Epoch:95 || loss------> 1.262
Epoch:95 || loss------> 0.745
Epoch:96 || loss------> 1.277
Epoch:96 || loss------> 0.731
Epoch:97 || loss------> 1.278
Epoch:97 || loss------> 0.731
Epoch:98 || loss------> 1.275
Epoch:98 || loss------> 0.710
Epoch:99 || loss------> 1.252
Epoch:99 || loss------> 0.739
Epoch:100 || loss------> 1.268
Epoch:100 || loss------> 0.726
------Training complete------
No. of correct predictions: 1324 || No. of total samples: 2375
Accuracy of fine-tuned network on test videos: 55.747 %
------Evaluation complete. Saving best available checkpoint------
Epoch:1 || loss------> 1.302
Epoch:1 || loss------> 1.189
Epoch:2 || loss------> 2.017
Epoch:2 || loss------> 1.149
Epoch:3 || loss------> 1.993
Epoch:3 || loss------> 1.098
Epoch:4 || loss------> 1.903
Epoch:4 || loss------> 1.086
Epoch:5 || loss------> 1.843
Epoch:5 || loss------> 1.049
Epoch:6 || loss------> 1.845
Epoch:6 || loss------> 1.007
Epoch:7 || loss------> 1.812
Epoch:7 || loss------> 1.000
Epoch:8 || loss------> 1.752
Epoch:8 || loss------> 0.962
Epoch:9 || loss------> 1.708
Epoch:9 || loss------> 0.906
Epoch:10 || loss------> 1.624
Epoch:10 || loss------> 0.933
Epoch:11 || loss------> 1.641
Epoch:11 || loss------> 0.873
Epoch:12 || loss------> 1.578
Epoch:12 || loss------> 0.900
Epoch:13 || loss------> 1.545
Epoch:13 || loss------> 0.895
Epoch:14 || loss------> 1.563
Epoch:14 || loss------> 0.868
Epoch:15 || loss------> 1.583
Epoch:15 || loss------> 0.862
Epoch:16 || loss------> 1.549
Epoch:16 || loss------> 0.883
Epoch:17 || loss------> 1.499
Epoch:17 || loss------> 0.887
Epoch:18 || loss------> 1.544
Epoch:18 || loss------> 0.846
Epoch:19 || loss------> 1.473
Epoch:19 || loss------> 0.833
Epoch:20 || loss------> 1.472
Epoch:20 || loss------> 0.842
Epoch:21 || loss------> 1.475
Epoch:21 || loss------> 0.830
Epoch:22 || loss------> 1.408
Epoch:22 || loss------> 0.839
Epoch:23 || loss------> 1.427
Epoch:23 || loss------> 0.813
Epoch:24 || loss------> 1.411
Epoch:24 || loss------> 0.788
Epoch:25 || loss------> 1.389
Epoch:25 || loss------> 0.785
Epoch:26 || loss------> 1.422
Epoch:26 || loss------> 0.787
Epoch:27 || loss------> 1.378
Epoch:27 || loss------> 0.778
Epoch:28 || loss------> 1.384
Epoch:28 || loss------> 0.767
Epoch:29 || loss------> 1.389
Epoch:29 || loss------> 0.765
Epoch:30 || loss------> 1.362
Epoch:30 || loss------> 0.791
Epoch:31 || loss------> 1.362
Epoch:31 || loss------> 0.765
Epoch:32 || loss------> 1.339
Epoch:32 || loss------> 0.772
Epoch:33 || loss------> 1.389
Epoch:33 || loss------> 0.778
Epoch:34 || loss------> 1.362
Epoch:34 || loss------> 0.773
Epoch:35 || loss------> 1.372
Epoch:35 || loss------> 0.760
Epoch:36 || loss------> 1.314
Epoch:36 || loss------> 0.758
Epoch:37 || loss------> 1.360
Epoch:37 || loss------> 0.745
Epoch:38 || loss------> 1.341
Epoch:38 || loss------> 0.777
Epoch:39 || loss------> 1.375
Epoch:39 || loss------> 0.764
Epoch:40 || loss------> 1.298
Epoch:40 || loss------> 0.739
Epoch:41 || loss------> 1.322
Epoch:41 || loss------> 0.773
Epoch:42 || loss------> 1.299
Epoch:42 || loss------> 0.756
Epoch:43 || loss------> 1.312
Epoch:43 || loss------> 0.780
Epoch:44 || loss------> 1.293
Epoch:44 || loss------> 0.747
Epoch:45 || loss------> 1.369
Epoch:45 || loss------> 0.752
Epoch:46 || loss------> 1.316
Epoch:46 || loss------> 0.731
Epoch:47 || loss------> 1.318
Epoch:47 || loss------> 0.805
Epoch:48 || loss------> 1.283
Epoch:48 || loss------> 0.749
Epoch:49 || loss------> 1.293
Epoch:49 || loss------> 0.723
Epoch:50 || loss------> 1.302
Epoch:50 || loss------> 0.730
Epoch:51 || loss------> 1.292
Epoch:51 || loss------> 0.762
Epoch:52 || loss------> 1.301
Epoch:52 || loss------> 0.722
Epoch:53 || loss------> 1.222
Epoch:53 || loss------> 0.712
Epoch:54 || loss------> 1.263
Epoch:54 || loss------> 0.720
Epoch:55 || loss------> 1.254
Epoch:55 || loss------> 0.719
Epoch:56 || loss------> 1.241
Epoch:56 || loss------> 0.716
Epoch:57 || loss------> 1.239
Epoch:57 || loss------> 0.695
Epoch:58 || loss------> 1.206
Epoch:58 || loss------> 0.698
Epoch:59 || loss------> 1.225
Epoch:59 || loss------> 0.709
Epoch:60 || loss------> 1.205
Epoch:60 || loss------> 0.694
Epoch:61 || loss------> 1.234
Epoch:61 || loss------> 0.676
Epoch:62 || loss------> 1.263
Epoch:62 || loss------> 0.696
Epoch:63 || loss------> 1.149
Epoch:63 || loss------> 0.709
Epoch:64 || loss------> 1.217
Epoch:64 || loss------> 0.673
Epoch:65 || loss------> 1.179
Epoch:65 || loss------> 0.694
Epoch:66 || loss------> 1.188
Epoch:66 || loss------> 0.692
Epoch:67 || loss------> 1.200
Epoch:67 || loss------> 0.666
Epoch:68 || loss------> 1.188
Epoch:68 || loss------> 0.647
Epoch:69 || loss------> 1.190
Epoch:69 || loss------> 0.678
Epoch:70 || loss------> 1.187
Epoch:70 || loss------> 0.677
Epoch:71 || loss------> 1.188
Epoch:71 || loss------> 0.651
Epoch:72 || loss------> 1.184
Epoch:72 || loss------> 0.671
Epoch:73 || loss------> 1.174
Epoch:73 || loss------> 0.652
Epoch:74 || loss------> 1.178
Epoch:74 || loss------> 0.653
Epoch:75 || loss------> 1.157
Epoch:75 || loss------> 0.650
Epoch:76 || loss------> 1.164
Epoch:76 || loss------> 0.668
Epoch:77 || loss------> 1.145
Epoch:77 || loss------> 0.649
Epoch:78 || loss------> 1.153
Epoch:78 || loss------> 0.643
Epoch:79 || loss------> 1.171
Epoch:79 || loss------> 0.650
Epoch:80 || loss------> 1.123
Epoch:80 || loss------> 0.658
Epoch:81 || loss------> 1.160
Epoch:81 || loss------> 0.649
Epoch:82 || loss------> 1.175
Epoch:82 || loss------> 0.634
Epoch:83 || loss------> 1.151
Epoch:83 || loss------> 0.655
Epoch:84 || loss------> 1.135
Epoch:84 || loss------> 0.644
Epoch:85 || loss------> 1.119
Epoch:85 || loss------> 0.643
Epoch:86 || loss------> 1.151
Epoch:86 || loss------> 0.643
Epoch:87 || loss------> 1.116
Epoch:87 || loss------> 0.670
Epoch:88 || loss------> 1.126
Epoch:88 || loss------> 0.632
Epoch:89 || loss------> 1.150
Epoch:89 || loss------> 0.649
Epoch:90 || loss------> 1.120
Epoch:90 || loss------> 0.624
Epoch:91 || loss------> 1.140
Epoch:91 || loss------> 0.654
Epoch:92 || loss------> 1.125
Epoch:92 || loss------> 0.647
Epoch:93 || loss------> 1.117
Epoch:93 || loss------> 0.647
Epoch:94 || loss------> 1.145
Epoch:94 || loss------> 0.619
Epoch:95 || loss------> 1.142
Epoch:95 || loss------> 0.627
Epoch:96 || loss------> 1.114
Epoch:96 || loss------> 0.653
Epoch:97 || loss------> 1.137
Epoch:97 || loss------> 0.623
Epoch:98 || loss------> 1.114
Epoch:98 || loss------> 0.652
Epoch:99 || loss------> 1.107
Epoch:99 || loss------> 0.637
Epoch:100 || loss------> 1.140
Epoch:100 || loss------> 0.656
------Training complete------
No. of correct predictions: 1275 || No. of total samples: 2375
Accuracy of fine-tuned network on test videos: 53.684 %
------Evaluation complete. Saving best available checkpoint------
Epoch:1 || loss------> 1.295
Epoch:1 || loss------> 1.187
Epoch:2 || loss------> 2.014
Epoch:2 || loss------> 1.109
Epoch:3 || loss------> 2.051
Epoch:3 || loss------> 1.166
Epoch:4 || loss------> 2.012
Epoch:4 || loss------> 1.090
Epoch:5 || loss------> 1.913
Epoch:5 || loss------> 1.091
Epoch:6 || loss------> 1.883
Epoch:6 || loss------> 1.065
Epoch:7 || loss------> 1.820
Epoch:7 || loss------> 1.009
Epoch:8 || loss------> 1.762
Epoch:8 || loss------> 0.959
Epoch:9 || loss------> 1.742
Epoch:9 || loss------> 0.991
Epoch:10 || loss------> 1.697
Epoch:10 || loss------> 0.968
Epoch:11 || loss------> 1.727
Epoch:11 || loss------> 0.957
Epoch:12 || loss------> 1.606
Epoch:12 || loss------> 0.955
Epoch:13 || loss------> 1.609
Epoch:13 || loss------> 0.916
Epoch:14 || loss------> 1.603
Epoch:14 || loss------> 0.913
Epoch:15 || loss------> 1.562
Epoch:15 || loss------> 0.885
Epoch:16 || loss------> 1.543
Epoch:16 || loss------> 0.862
Epoch:17 || loss------> 1.537
Epoch:17 || loss------> 0.848
Epoch:18 || loss------> 1.523
Epoch:18 || loss------> 0.844
Epoch:19 || loss------> 1.528
Epoch:19 || loss------> 0.875
Epoch:20 || loss------> 1.487
Epoch:20 || loss------> 0.875
Epoch:21 || loss------> 1.449
Epoch:21 || loss------> 0.815
Epoch:22 || loss------> 1.474
Epoch:22 || loss------> 0.807
Epoch:23 || loss------> 1.449
Epoch:23 || loss------> 0.812
Epoch:24 || loss------> 1.415
Epoch:24 || loss------> 0.808
Epoch:25 || loss------> 1.445
Epoch:25 || loss------> 0.822
Epoch:26 || loss------> 1.429
Epoch:26 || loss------> 0.795
Epoch:27 || loss------> 1.410
Epoch:27 || loss------> 0.825
Epoch:28 || loss------> 1.434
Epoch:28 || loss------> 0.805
Epoch:29 || loss------> 1.400
Epoch:29 || loss------> 0.821
Epoch:30 || loss------> 1.447
Epoch:30 || loss------> 0.791
Epoch:31 || loss------> 1.431
Epoch:31 || loss------> 0.840
Epoch:32 || loss------> 1.447
Epoch:32 || loss------> 0.791
Epoch:33 || loss------> 1.423
Epoch:33 || loss------> 0.800
Epoch:34 || loss------> 1.443
Epoch:34 || loss------> 0.841
Epoch:35 || loss------> 1.407
Epoch:35 || loss------> 0.812
Epoch:36 || loss------> 1.410
Epoch:36 || loss------> 0.843
Epoch:37 || loss------> 1.419
Epoch:37 || loss------> 0.815
Epoch:38 || loss------> 1.404
Epoch:38 || loss------> 0.782
Epoch:39 || loss------> 1.413
Epoch:39 || loss------> 0.802
Epoch:40 || loss------> 1.379
Epoch:40 || loss------> 0.803
Epoch:41 || loss------> 1.360
Epoch:41 || loss------> 0.774
Epoch:42 || loss------> 1.349
Epoch:42 || loss------> 0.792
Epoch:43 || loss------> 1.387
Epoch:43 || loss------> 0.764
Epoch:44 || loss------> 1.351
Epoch:44 || loss------> 0.745
Epoch:45 || loss------> 1.362
Epoch:45 || loss------> 0.751
Epoch:46 || loss------> 1.320
Epoch:46 || loss------> 0.757
Epoch:47 || loss------> 1.338
Epoch:47 || loss------> 0.749
Epoch:48 || loss------> 1.303
Epoch:48 || loss------> 0.735
Epoch:49 || loss------> 1.308
Epoch:49 || loss------> 0.746
Epoch:50 || loss------> 1.325
Epoch:50 || loss------> 0.735
Epoch:51 || loss------> 1.303
Epoch:51 || loss------> 0.737
Epoch:52 || loss------> 1.300
Epoch:52 || loss------> 0.705
Epoch:53 || loss------> 1.288
Epoch:53 || loss------> 0.756
Epoch:54 || loss------> 1.298
Epoch:54 || loss------> 0.740
Epoch:55 || loss------> 1.276
Epoch:55 || loss------> 0.747
Epoch:56 || loss------> 1.278
Epoch:56 || loss------> 0.699
Epoch:57 || loss------> 1.318
Epoch:57 || loss------> 0.721
Epoch:58 || loss------> 1.244
Epoch:58 || loss------> 0.728
Epoch:59 || loss------> 1.263
Epoch:59 || loss------> 0.728
Epoch:60 || loss------> 1.272
Epoch:60 || loss------> 0.709
Epoch:61 || loss------> 1.246
Epoch:61 || loss------> 0.754
Epoch:62 || loss------> 1.214
Epoch:62 || loss------> 0.707
Epoch:63 || loss------> 1.249
Epoch:63 || loss------> 0.707
Epoch:64 || loss------> 1.233
Epoch:64 || loss------> 0.718
Epoch:65 || loss------> 1.247
Epoch:65 || loss------> 0.712
Epoch:66 || loss------> 1.205
Epoch:66 || loss------> 0.704
Epoch:67 || loss------> 1.229
Epoch:67 || loss------> 0.712
Epoch:68 || loss------> 1.249
Epoch:68 || loss------> 0.679
Epoch:69 || loss------> 1.226
Epoch:69 || loss------> 0.660
Epoch:70 || loss------> 1.224
Epoch:70 || loss------> 0.704
Epoch:71 || loss------> 1.208
Epoch:71 || loss------> 0.686
Epoch:72 || loss------> 1.214
Epoch:72 || loss------> 0.679
Epoch:73 || loss------> 1.204
Epoch:73 || loss------> 0.692
Epoch:74 || loss------> 1.263
Epoch:74 || loss------> 0.675
Epoch:75 || loss------> 1.238
Epoch:75 || loss------> 0.696
Epoch:76 || loss------> 1.202
Epoch:76 || loss------> 0.677
Epoch:77 || loss------> 1.237
Epoch:77 || loss------> 0.677
Epoch:78 || loss------> 1.182
Epoch:78 || loss------> 0.693
Epoch:79 || loss------> 1.184
Epoch:79 || loss------> 0.684
Epoch:80 || loss------> 1.189
Epoch:80 || loss------> 0.690
Epoch:81 || loss------> 1.182
Epoch:81 || loss------> 0.671
Epoch:82 || loss------> 1.210
Epoch:82 || loss------> 0.666
Epoch:83 || loss------> 1.220
Epoch:83 || loss------> 0.657
Epoch:84 || loss------> 1.186
Epoch:84 || loss------> 0.678
Epoch:85 || loss------> 1.192
Epoch:85 || loss------> 0.680
Epoch:86 || loss------> 1.185
Epoch:86 || loss------> 0.685
Epoch:87 || loss------> 1.194
Epoch:87 || loss------> 0.675
Epoch:88 || loss------> 1.178
Epoch:88 || loss------> 0.674
Epoch:89 || loss------> 1.169
Epoch:89 || loss------> 0.688
Epoch:90 || loss------> 1.195
Epoch:90 || loss------> 0.674
Epoch:91 || loss------> 1.204
Epoch:91 || loss------> 0.656
Epoch:92 || loss------> 1.196
Epoch:92 || loss------> 0.679
Epoch:93 || loss------> 1.179
Epoch:93 || loss------> 0.670
Epoch:94 || loss------> 1.210
Epoch:94 || loss------> 0.661
Epoch:95 || loss------> 1.197
Epoch:95 || loss------> 0.673
Epoch:96 || loss------> 1.179
Epoch:96 || loss------> 0.679
Epoch:97 || loss------> 1.171
Epoch:97 || loss------> 0.672
Epoch:98 || loss------> 1.227
Epoch:98 || loss------> 0.671
Epoch:99 || loss------> 1.173
Epoch:99 || loss------> 0.684
Epoch:100 || loss------> 1.205
Epoch:100 || loss------> 0.648
------Training complete------
No. of correct predictions: 1231 || No. of total samples: 2375
Accuracy of fine-tuned network on test videos: 51.832 %
------Evaluation complete. Saving best available checkpoint------
Epoch:1 || loss------> 1.280
Epoch:1 || loss------> 1.176
Epoch:2 || loss------> 2.032
Epoch:2 || loss------> 1.143
Epoch:3 || loss------> 1.990
Epoch:3 || loss------> 1.116
Epoch:4 || loss------> 1.945
Epoch:4 || loss------> 1.083
Epoch:5 || loss------> 1.824
Epoch:5 || loss------> 1.065
Epoch:6 || loss------> 1.882
Epoch:6 || loss------> 1.030
Epoch:7 || loss------> 1.858
Epoch:7 || loss------> 1.049
Epoch:8 || loss------> 1.792
Epoch:8 || loss------> 0.984
Epoch:9 || loss------> 1.742
Epoch:9 || loss------> 0.968
Epoch:10 || loss------> 1.708
Epoch:10 || loss------> 0.943
Epoch:11 || loss------> 1.654
Epoch:11 || loss------> 0.936
Epoch:12 || loss------> 1.633
Epoch:12 || loss------> 0.934
Epoch:13 || loss------> 1.569
Epoch:13 || loss------> 0.905
Epoch:14 || loss------> 1.583
Epoch:14 || loss------> 0.882
Epoch:15 || loss------> 1.574
Epoch:15 || loss------> 0.898
Epoch:16 || loss------> 1.537
Epoch:16 || loss------> 0.867
Epoch:17 || loss------> 1.557
Epoch:17 || loss------> 0.879
Epoch:18 || loss------> 1.508
Epoch:18 || loss------> 0.854
Epoch:19 || loss------> 1.487
Epoch:19 || loss------> 0.872
Epoch:20 || loss------> 1.471
Epoch:20 || loss------> 0.832
Epoch:21 || loss------> 1.517
Epoch:21 || loss------> 0.867
Epoch:22 || loss------> 1.476
Epoch:22 || loss------> 0.851
Epoch:23 || loss------> 1.466
Epoch:23 || loss------> 0.857
Epoch:24 || loss------> 1.460
Epoch:24 || loss------> 0.854
Epoch:25 || loss------> 1.480
Epoch:25 || loss------> 0.836
Epoch:26 || loss------> 1.456
Epoch:26 || loss------> 0.834
Epoch:27 || loss------> 1.469
Epoch:27 || loss------> 0.808
Epoch:28 || loss------> 1.471
Epoch:28 || loss------> 0.838
Epoch:29 || loss------> 1.461
Epoch:29 || loss------> 0.800
Epoch:30 || loss------> 1.435
Epoch:30 || loss------> 0.805
Epoch:31 || loss------> 1.399
Epoch:31 || loss------> 0.816
Epoch:32 || loss------> 1.407
Epoch:32 || loss------> 0.791
Epoch:33 || loss------> 1.427
Epoch:33 || loss------> 0.799
Epoch:34 || loss------> 1.399
Epoch:34 || loss------> 0.774
Epoch:35 || loss------> 1.415
Epoch:35 || loss------> 0.810
Epoch:36 || loss------> 1.423
Epoch:36 || loss------> 0.785
Epoch:37 || loss------> 1.411
Epoch:37 || loss------> 0.797
Epoch:38 || loss------> 1.430
Epoch:38 || loss------> 0.791
Epoch:39 || loss------> 1.402
Epoch:39 || loss------> 0.802
Epoch:40 || loss------> 1.413
Epoch:40 || loss------> 0.786
Epoch:41 || loss------> 1.366
Epoch:41 || loss------> 0.768
Epoch:42 || loss------> 1.417
Epoch:42 || loss------> 0.806
Epoch:43 || loss------> 1.337
Epoch:43 || loss------> 0.780
Epoch:44 || loss------> 1.412
Epoch:44 || loss------> 0.791
Epoch:45 || loss------> 1.377
Epoch:45 || loss------> 0.754
Epoch:46 || loss------> 1.321
Epoch:46 || loss------> 0.791
Epoch:47 || loss------> 1.351
Epoch:47 || loss------> 0.774
Epoch:48 || loss------> 1.324
Epoch:48 || loss------> 0.765
Epoch:49 || loss------> 1.316
Epoch:49 || loss------> 0.755
Epoch:50 || loss------> 1.339
Epoch:50 || loss------> 0.752
Epoch:51 || loss------> 1.319
Epoch:51 || loss------> 0.742
Epoch:52 || loss------> 1.322
Epoch:52 || loss------> 0.733
Epoch:53 || loss------> 1.315
Epoch:53 || loss------> 0.709
Epoch:54 || loss------> 1.344
Epoch:54 || loss------> 0.742
Epoch:55 || loss------> 1.287
Epoch:55 || loss------> 0.743
Epoch:56 || loss------> 1.273
Epoch:56 || loss------> 0.731
Epoch:57 || loss------> 1.273
Epoch:57 || loss------> 0.728
Epoch:58 || loss------> 1.291
Epoch:58 || loss------> 0.709
Epoch:59 || loss------> 1.293
Epoch:59 || loss------> 0.722
Epoch:60 || loss------> 1.261
Epoch:60 || loss------> 0.699
Epoch:61 || loss------> 1.243
Epoch:61 || loss------> 0.724
Epoch:62 || loss------> 1.265
Epoch:62 || loss------> 0.720
Epoch:63 || loss------> 1.249
Epoch:63 || loss------> 0.715
Epoch:64 || loss------> 1.253
Epoch:64 || loss------> 0.708
Epoch:65 || loss------> 1.278
Epoch:65 || loss------> 0.712
Epoch:66 || loss------> 1.227
Epoch:66 || loss------> 0.712
Epoch:67 || loss------> 1.276
Epoch:67 || loss------> 0.693
Epoch:68 || loss------> 1.232
Epoch:68 || loss------> 0.714
Epoch:69 || loss------> 1.245
Epoch:69 || loss------> 0.695
Epoch:70 || loss------> 1.202
Epoch:70 || loss------> 0.710
Epoch:71 || loss------> 1.215
Epoch:71 || loss------> 0.701
Epoch:72 || loss------> 1.226
Epoch:72 || loss------> 0.684
Epoch:73 || loss------> 1.215
Epoch:73 || loss------> 0.684
Epoch:74 || loss------> 1.230
Epoch:74 || loss------> 0.670
Epoch:75 || loss------> 1.230
Epoch:75 || loss------> 0.698
Epoch:76 || loss------> 1.210
Epoch:76 || loss------> 0.673
Epoch:77 || loss------> 1.228
Epoch:77 || loss------> 0.686
Epoch:78 || loss------> 1.217
Epoch:78 || loss------> 0.692
Epoch:79 || loss------> 1.221
Epoch:79 || loss------> 0.667
Epoch:80 || loss------> 1.218
Epoch:80 || loss------> 0.671
Epoch:81 || loss------> 1.192
Epoch:81 || loss------> 0.671
Epoch:82 || loss------> 1.220
Epoch:82 || loss------> 0.681
Epoch:83 || loss------> 1.186
Epoch:83 || loss------> 0.690
Epoch:84 || loss------> 1.200
Epoch:84 || loss------> 0.691
Epoch:85 || loss------> 1.187
Epoch:85 || loss------> 0.675
Epoch:86 || loss------> 1.175
Epoch:86 || loss------> 0.670
Epoch:87 || loss------> 1.203
Epoch:87 || loss------> 0.675
Epoch:88 || loss------> 1.195
Epoch:88 || loss------> 0.670
Epoch:89 || loss------> 1.178
Epoch:89 || loss------> 0.679
Epoch:90 || loss------> 1.210
Epoch:90 || loss------> 0.656
Epoch:91 || loss------> 1.183
Epoch:91 || loss------> 0.674
Epoch:92 || loss------> 1.202
Epoch:92 || loss------> 0.678
Epoch:93 || loss------> 1.201
Epoch:93 || loss------> 0.689
Epoch:94 || loss------> 1.176
Epoch:94 || loss------> 0.693
Epoch:95 || loss------> 1.169
Epoch:95 || loss------> 0.676
Epoch:96 || loss------> 1.199
Epoch:96 || loss------> 0.666
Epoch:97 || loss------> 1.168
Epoch:97 || loss------> 0.696
Epoch:98 || loss------> 1.180
Epoch:98 || loss------> 0.670
Epoch:99 || loss------> 1.174
Epoch:99 || loss------> 0.685
Epoch:100 || loss------> 1.181
Epoch:100 || loss------> 0.669
------Training complete------
No. of correct predictions: 1309 || No. of total samples: 2375
Accuracy of fine-tuned network on test videos: 55.116 %
------Evaluation complete. Saving best available checkpoint------
Epoch:1 || loss------> 1.285
Epoch:1 || loss------> 1.180
Epoch:2 || loss------> 2.022
Epoch:2 || loss------> 1.186
Epoch:3 || loss------> 2.015
Epoch:3 || loss------> 1.203
Epoch:4 || loss------> 1.954
Epoch:4 || loss------> 1.123
Epoch:5 || loss------> 1.897
Epoch:5 || loss------> 1.089
Epoch:6 || loss------> 1.857
Epoch:6 || loss------> 1.018
Epoch:7 || loss------> 1.804
Epoch:7 || loss------> 0.968
Epoch:8 || loss------> 1.773
Epoch:8 || loss------> 1.012
Epoch:9 || loss------> 1.716
Epoch:9 || loss------> 0.961
Epoch:10 || loss------> 1.677
Epoch:10 || loss------> 0.970
Epoch:11 || loss------> 1.692
Epoch:11 || loss------> 0.902
Epoch:12 || loss------> 1.626
Epoch:12 || loss------> 0.925
Epoch:13 || loss------> 1.617
Epoch:13 || loss------> 0.900
Epoch:14 || loss------> 1.635
Epoch:14 || loss------> 0.881
Epoch:15 || loss------> 1.602
Epoch:15 || loss------> 0.900
Epoch:16 || loss------> 1.563
Epoch:16 || loss------> 0.908
Epoch:17 || loss------> 1.567
Epoch:17 || loss------> 0.895
Epoch:18 || loss------> 1.563
Epoch:18 || loss------> 0.868
Epoch:19 || loss------> 1.550
Epoch:19 || loss------> 0.854
Epoch:20 || loss------> 1.496
Epoch:20 || loss------> 0.863
Epoch:21 || loss------> 1.486
Epoch:21 || loss------> 0.886
Epoch:22 || loss------> 1.500
Epoch:22 || loss------> 0.843
Epoch:23 || loss------> 1.479
Epoch:23 || loss------> 0.837
Epoch:24 || loss------> 1.493
Epoch:24 || loss------> 0.861
Epoch:25 || loss------> 1.484
Epoch:25 || loss------> 0.870
Epoch:26 || loss------> 1.511
Epoch:26 || loss------> 0.871
Epoch:27 || loss------> 1.495
Epoch:27 || loss------> 0.861
Epoch:28 || loss------> 1.512
Epoch:28 || loss------> 0.836
Epoch:29 || loss------> 1.510
Epoch:29 || loss------> 0.801
Epoch:30 || loss------> 1.502
Epoch:30 || loss------> 0.850
Epoch:31 || loss------> 1.485
Epoch:31 || loss------> 0.852
Epoch:32 || loss------> 1.485
Epoch:32 || loss------> 0.835
Epoch:33 || loss------> 1.459
Epoch:33 || loss------> 0.801
Epoch:34 || loss------> 1.459
Epoch:34 || loss------> 0.837
Epoch:35 || loss------> 1.453
Epoch:35 || loss------> 0.826
Epoch:36 || loss------> 1.432
Epoch:36 || loss------> 0.840
Epoch:37 || loss------> 1.449
Epoch:37 || loss------> 0.797
Epoch:38 || loss------> 1.422
Epoch:38 || loss------> 0.825
Epoch:39 || loss------> 1.411
Epoch:39 || loss------> 0.808
Epoch:40 || loss------> 1.412
Epoch:40 || loss------> 0.802
Epoch:41 || loss------> 1.427
Epoch:41 || loss------> 0.790
Epoch:42 || loss------> 1.424
Epoch:42 || loss------> 0.775
Epoch:43 || loss------> 1.444
Epoch:43 || loss------> 0.769
Epoch:44 || loss------> 1.337
Epoch:44 || loss------> 0.797
Epoch:45 || loss------> 1.366
Epoch:45 || loss------> 0.773
Epoch:46 || loss------> 1.352
Epoch:46 || loss------> 0.772
Epoch:47 || loss------> 1.359
Epoch:47 || loss------> 0.762
Epoch:48 || loss------> 1.378
Epoch:48 || loss------> 0.766
Epoch:49 || loss------> 1.330
Epoch:49 || loss------> 0.770
Epoch:50 || loss------> 1.341
Epoch:50 || loss------> 0.741
Epoch:51 || loss------> 1.349
Epoch:51 || loss------> 0.777
Epoch:52 || loss------> 1.302
Epoch:52 || loss------> 0.746
Epoch:53 || loss------> 1.322
Epoch:53 || loss------> 0.760
Epoch:54 || loss------> 1.295
Epoch:54 || loss------> 0.737
Epoch:55 || loss------> 1.301
Epoch:55 || loss------> 0.726
Epoch:56 || loss------> 1.298
Epoch:56 || loss------> 0.727
Epoch:57 || loss------> 1.306
Epoch:57 || loss------> 0.757
Epoch:58 || loss------> 1.297
Epoch:58 || loss------> 0.743
Epoch:59 || loss------> 1.296
Epoch:59 || loss------> 0.741
Epoch:60 || loss------> 1.297
Epoch:60 || loss------> 0.733
Epoch:61 || loss------> 1.295
Epoch:61 || loss------> 0.737
Epoch:62 || loss------> 1.297
Epoch:62 || loss------> 0.736
Epoch:63 || loss------> 1.277
Epoch:63 || loss------> 0.725
Epoch:64 || loss------> 1.304
Epoch:64 || loss------> 0.705
Epoch:65 || loss------> 1.263
Epoch:65 || loss------> 0.727
Epoch:66 || loss------> 1.280
Epoch:66 || loss------> 0.733
Epoch:67 || loss------> 1.263
Epoch:67 || loss------> 0.718
Epoch:68 || loss------> 1.258
Epoch:68 || loss------> 0.722
Epoch:69 || loss------> 1.282
Epoch:69 || loss------> 0.684
Epoch:70 || loss------> 1.250
Epoch:70 || loss------> 0.728
Epoch:71 || loss------> 1.238
Epoch:71 || loss------> 0.704
Epoch:72 || loss------> 1.260
Epoch:72 || loss------> 0.711
Epoch:73 || loss------> 1.246
Epoch:73 || loss------> 0.681
Epoch:74 || loss------> 1.282
Epoch:74 || loss------> 0.696
Epoch:75 || loss------> 1.260
Epoch:75 || loss------> 0.702
Epoch:76 || loss------> 1.256
Epoch:76 || loss------> 0.685
Epoch:77 || loss------> 1.232
Epoch:77 || loss------> 0.695
Epoch:78 || loss------> 1.231
Epoch:78 || loss------> 0.683
Epoch:79 || loss------> 1.240
Epoch:79 || loss------> 0.706
Epoch:80 || loss------> 1.241
Epoch:80 || loss------> 0.696
Epoch:81 || loss------> 1.238
Epoch:81 || loss------> 0.705
Epoch:82 || loss------> 1.221
Epoch:82 || loss------> 0.713
Epoch:83 || loss------> 1.219
Epoch:83 || loss------> 0.699
Epoch:84 || loss------> 1.219
Epoch:84 || loss------> 0.675
Epoch:85 || loss------> 1.216
Epoch:85 || loss------> 0.693
Epoch:86 || loss------> 1.197
Epoch:86 || loss------> 0.700
Epoch:87 || loss------> 1.210
Epoch:87 || loss------> 0.702
Epoch:88 || loss------> 1.228
Epoch:88 || loss------> 0.687
Epoch:89 || loss------> 1.231
Epoch:89 || loss------> 0.687
Epoch:90 || loss------> 1.228
Epoch:90 || loss------> 0.694
Epoch:91 || loss------> 1.214
Epoch:91 || loss------> 0.678
Epoch:92 || loss------> 1.224
Epoch:92 || loss------> 0.696
Epoch:93 || loss------> 1.206
Epoch:93 || loss------> 0.681
Epoch:94 || loss------> 1.246
Epoch:94 || loss------> 0.673
Epoch:95 || loss------> 1.225
Epoch:95 || loss------> 0.677
Epoch:96 || loss------> 1.191
Epoch:96 || loss------> 0.690
Epoch:97 || loss------> 1.239
Epoch:97 || loss------> 0.696
Epoch:98 || loss------> 1.212
Epoch:98 || loss------> 0.694
Epoch:99 || loss------> 1.205
Epoch:99 || loss------> 0.693
Epoch:100 || loss------> 1.220
Epoch:100 || loss------> 0.680
------Training complete------
No. of correct predictions: 1284 || No. of total samples: 2375
Accuracy of fine-tuned network on test videos: 54.063 %
------Evaluation complete. Saving best available checkpoint------
Mean accuracy obtained over 5 runs: 54.088
Best accuracy obtained over 5 runs: 55.747
[55.747368421052634, 53.68421052631579, 51.83157894736842, 55.11578947368421, 54.06315789473684]
